<?xml version="1.0" standalone="no"?><!DOCTYPE svg PUBLIC "-//W3C//DTD SVG 1.1//EN" "http://www.w3.org/Graphics/SVG/1.1/DTD/svg11.dtd"><svg class="icon" height="512" viewBox="0 0 1024 1024" version="1.1" xmlns="http://www.w3.org/2000/svg"><path d="M741.211 1021.874c-99.35 0.025-283.316-67.989-476.35-259.956C28.513 526.788-47.229 273.145 32.614 192.581c5.293-5.342 10.736-11.132 16.302-17.022 33.721-35.833 75.17-80.34 131.456-78.302 38.418 1.441 75.146 24.502 112.297 70.474 101.687 125.716 65.405 179.367 3.032 241.418l-9.518 9.517c-0.323 0.298-28.453 32.38 130.288 190.3 119.604 118.983 167.292 131.93 182.325 131.93h0.101c5.592-0.023 7.354-1.813 8.324-2.783l9.394-9.566c61.505-63.07 114.756-99.849 241.145 1.142 46.121 36.853 69.355 73.482 71.12 111.949 2.535 55.789-41.624 98.207-77.11 132.276-5.863 5.616-11.579 11.108-16.897 16.477-20.251 20.451-52.359 31.335-92.84 31.484l-0.822-0.001z m-564.517-873.8c-32.007 0-63.169 33.1-90.728 62.35-5.865 6.237-11.604 12.325-17.196 17.965-45.178 45.576-4.225 262.466 231.974 497.448C471.141 895.263 644.52 970.981 741.137 970.981h0.695c26.292-0.1 46.495-5.914 56.882-16.4 5.591-5.666 11.63-11.456 17.817-17.396 29.521-28.354 62.994-60.485 61.504-93.261-1.044-22.639-18.538-47.688-52.037-74.476-100.17-80.044-122.933-56.608-172.955-5.368l-9.666 9.84c-11.506 11.63-26.839 17.794-44.308 17.867h-0.323c-30.44 0-86.18-15.456-218.158-146.738-135.955-135.257-176.236-216.12-130.562-262.216l9.766-9.767c49.252-49.004 73.979-73.605-6.709-173.353-26.987-33.399-52.086-50.744-74.65-51.613-0.572-0.026-1.168-0.026-1.739-0.026z m840.824 414.25l-50.396-7.257c6.238-43.165 14.29-196.315-143.606-354.51C665.668 42.412 512.889 50.538 469.823 56.651l-7.255-50.346C511.523-0.878 684.95-10.32 859.547 164.624c174.57 174.895 165.028 348.621 157.971 397.7z m-233.515-58.051c-10.188-65.106-41.899-127.131-89.312-174.62-47.414-47.463-109.289-79.271-174.249-89.485l7.903-50.296c75.519 11.903 147.386 48.78 202.379 103.823 54.943 55.068 91.721 127.058 103.574 202.727l-50.295 7.851z" /></svg>